# xmcd
#
# Track frame offsets: 
#        150
#        16204
#        33962
#        50920
#        66507
#        85430
#        99823
#        116213
#        134378
#        151642
#        167493
#        181235
#        199441
#
# Disc length: 2851 seconds
#
# Revision: 0
# Processed by: cddbd v1.4PL0 Copyright (c) Steve Scherf et al.
# Submitted via: ExactAudioCopy v0.90a11
#
DISCID=ad0b210d
DTITLE=Edson and Marcelo - Edson and Marcelo
DYEAR=1900
DGENRE=
TTITLE0=Pode Pedir
TTITLE1=A Saudade Machuca
TTITLE2=Sonho que Virou Paixão
TTITLE3=Te Segura Cowboy
TTITLE4=Lua
TTITLE5=Bom Peão
TTITLE6=Sem Motivo e Sem Razão
TTITLE7=O Amor Nunca Mudou
TTITLE8=De Paz com a Vida
TTITLE9=O Troco
TTITLE10=Coceira Danada
TTITLE11=Vai Pegar Fogo
TTITLE12=Saudade Virou Paixão
EXTD=Com os cumprimentos de nil_bazana@yahoo.com\n\nMaringá - Novembro
EXTD=de 2001\n\nvisite: \n\nwww.qualidademp3.cjb.net\n\nwww.edsonemar
EXTD=celo.cjb.net\n\n
EXTT0=
EXTT1=
EXTT2=
EXTT3=
EXTT4=
EXTT5=
EXTT6=
EXTT7=
EXTT8=
EXTT9=
EXTT10=
EXTT11=
EXTT12=
PLAYORDER=
